<svg xmlns="http://www.w3.org/2000/svg" viewBox="0 0 97 22">
  <path fill="#2d2926" d="M27.82 21.65h-1v-4.99h3.5v1h-2.5v1h1.5v1h-1.5zm9.28-2.47a2.52 2.52 0 01-.36 1.3 2.56 2.56 0 01-.92.92 2.55 2.55 0 01-1.99.27 2.59 2.59 0 01-1.54-3.8 2.63 2.63 0 011.54-1.18 2.52 2.52 0 011.37 0 2.6 2.6 0 011.54 1.18 2.6 2.6 0 01.35 1.3zm-1 0a1.6 1.6 0 00-.97-1.47 1.54 1.54 0 00-.62-.12 1.54 1.54 0 00-.62.12 1.63 1.63 0 00-.84.85 1.54 1.54 0 000 1.23 1.62 1.62 0 00.85.84 1.54 1.54 0 00.62.13 1.59 1.59 0 001.58-1.59zm4.13-1.52v2h1a.96.96 0 00.7-.3 1 1 0 000-1.41 1.01 1.01 0 00-.7-.3zm0 4h-1v-5h2a1.95 1.95 0 011 .27 2.02 2.02 0 011 1.73 1.96 1.96 0 01-.25.96 1.96 1.96 0 01-.68.72l.55 1.31h-1.06l-.44-1h-1.12zm10.09 0h-1v-3.57a.5.5 0 00-.03-.2.52.52 0 00-.27-.26.5.5 0 00-.2-.04.5.5 0 00-.5.5v3.56h-.99V18.1a.5.5 0 00-.7-.46.5.5 0 00-.3.46v3.56h-1V18.1a1.47 1.47 0 01.44-1.06 1.5 1.5 0 012.06-.06 1.46 1.46 0 011-.38 1.47 1.47 0 011.06.44 1.5 1.5 0 01.43 1.05zm6.86 0h-1v-5h3.5v1h-2.5v1h1.5v1h-1.5zm7.32-2v-1a.98.98 0 00-.29-.71 1 1 0 00-1.41 0 1 1 0 00-.3.7v1zm1 2h-1v-1.01h-2v1h-1v-3a2.03 2.03 0 011.22-1.83 1.95 1.95 0 01.78-.16 2.02 2.02 0 011.84 1.22c.1.24.16.5.16.78zm6.34-.52a2.54 2.54 0 01-1.68.62 2.52 2.52 0 01-1.3-.36 2.6 2.6 0 01-1.28-2.23 2.54 2.54 0 01.36-1.3 2.6 2.6 0 012.23-1.28 2.58 2.58 0 011.67.62l-.53.87a1.59 1.59 0 00-2.27-.03 1.59 1.59 0 00-.34 1.74 1.62 1.62 0 00.85.84 1.59 1.59 0 001.76-.36zm4.16.51h-1v-4h-1.5v-1h4v1H76zm8.24-2.47a2.52 2.52 0 01-.35 1.3 2.56 2.56 0 01-.92.92 2.55 2.55 0 01-1.99.27 2.59 2.59 0 01-1.54-3.8 2.63 2.63 0 011.54-1.18 2.52 2.52 0 011.37 0 2.6 2.6 0 011.54 1.18 2.6 2.6 0 01.35 1.3zm-.99 0a1.6 1.6 0 00-.97-1.47 1.54 1.54 0 00-.61-.12 1.54 1.54 0 00-.62.12 1.63 1.63 0 00-.85.85 1.54 1.54 0 000 1.23 1.62 1.62 0 00.85.84 1.54 1.54 0 00.62.13 1.59 1.59 0 001.58-1.59zm4.13-1.52v2h1a.96.96 0 00.7-.3 1 1 0 000-1.41 1.01 1.01 0 00-.7-.3zm0 4h-1v-5h2a1.95 1.95 0 011 .27 2.02 2.02 0 011 1.73 1.96 1.96 0 01-.25.96 1.96 1.96 0 01-.68.72l.55 1.31h-1.06l-.44-1h-1.12zm7.39 0h-1v-1.57a1.95 1.95 0 01-1.08-.71 2 2 0 01-.42-1.23v-1.49h1v1.5a.98.98 0 00.29.7 1 1 0 001.41 0 1 1 0 00.3-.7v-1.5h.99v1.5a1.96 1.96 0 01-.42 1.22 2.01 2.01 0 01-1.08.7z"/>
  <path fill="#ff5e00" d="M31.48 14.55c1.26 0 2.1-.84 2.1-2.1v-10c0-1.26-.84-2.1-2.1-2.1h-4.66v14.2zm-.77-3.3c0 .38-.17.63-.6.63h-.42V3.01h.43c.44 0 .59.27.59.64zm6.65 3.3h2.56c1.26 0 2.1-.84 2.1-2.1V.35h-2.87v6.06c0 .32 0 .5-.27.54h-.48c-.24-.05-.26-.25-.26-.5V.34h-2.88v7.17c0 1.26.84 2.1 2.1 2.1h1.8v1.72c0 .32-.02.5-.28.54h-.48c-.24-.05-.26-.25-.26-.5v-.93h-2.88v2c0 1.26.84 2.1 2.1 2.1zm9.2 0V4.35l1.05 1.88v8.32h2.86V.35H47.6v2.82L45.9.35H43.7v14.2zM56.81.35h-2.56c-1.26 0-2.1.83-2.1 2.1v12.09h2.88V8.37h1v6.17h2.88V2.44c0-1.26-.84-2.1-2.1-2.1zm-.78 5.35h-1V3.57c0-.3.02-.56.42-.56h.2c.37 0 .38.26.38.56zm7.42 1.77l.38 1.1h.3l.37-1.09v7.07h2.86V.35h-2.1l-1.28 3.78L62.69.35h-2.1v14.2h2.86zM69.04.35v14.2h2.85V.35zm4.53 12.1c0 1.26.84 2.1 2.1 2.1h2.57c1.26 0 2.1-.84 2.1-2.1V5.69h-3.45v2.66h.59v2.9c0 .5-.08.63-.43.63h-.2c-.34 0-.42-.12-.42-.63V3.64c0-.5.08-.63.43-.63h.2c.34 0 .42.13.42.63v.4h2.86v-1.6c0-1.26-.84-2.1-2.1-2.1h-2.57c-1.26 0-2.1.84-2.1 2.1zm8.28 2.1h2.86V8.37h1.04v6.18h2.86V.35h-2.86V5.7h-1.04V.35h-2.86zm9.9 0h2.85V3h1.95V.35h-6.76v2.66h1.95zM2.77 9.47c.09 0 .18-.02.26-.08l2.32-1.63.7.82-1.53 1.21a.46.46 0 00.57.72l4.24-3.35 2.4 2.18v2.67a.46.46 0 10.91 0V5.4h4.51v6.6a.46.46 0 10.92 0V8.9l1.9 1.2a.46.46 0 00.64-.14.46.46 0 00-.14-.63l-2.38-1.5h-.02V5.41h.48a.46.46 0 00.46-.46v-3.4a.46.46 0 00-.46-.46h-1.5a.46.46 0 00-.45.46V2.8h-.53V1.56a.46.46 0 00-.46-.46H14.2a.46.46 0 00-.46.46V2.8h-.54V1.56a.46.46 0 00-.46-.46h-1.49a.46.46 0 00-.46.46v3.4c0 .25.2.46.46.46h.48V8.1L9.67 6.2a.46.46 0 00-.6-.02L6.8 8l-1-1.16a.46.46 0 00-.61-.07L2.5 8.64a.46.46 0 00.27.83zm2.39-4.15a1.75 1.75 0 100-3.5 1.75 1.75 0 000 3.5zm6.54-3.3h.57v1.24c0 .26.21.46.46.46h1.46a.46.46 0 00.46-.46V2.02h.5v1.24c0 .26.2.46.46.46h1.45a.46.46 0 00.46-.46V2.02h.57V4.5h-6.39zm-6.54.72a.83.83 0 110 1.66.83.83 0 010-1.66zm8.46 4.83a1.28 1.28 0 102.56 0 1.28 1.28 0 00-2.56 0zm1.64 0a.36.36 0 11-.73 0 .36.36 0 01.73 0zm5.96 5.91a.46.46 0 00-.58-.28c-6.23 2.17-8.4 1.22-10.92.11a14.93 14.93 0 00-8.4-1.45.46.46 0 10.08.92 14 14 0 017.95 1.37c1.47.64 2.89 1.27 5.05 1.27 1.64 0 3.7-.36 6.54-1.35a.46.46 0 00.28-.59zm-2.54 3.08c-4.52 1.27-6.3.56-8.19-.19-1.12-.44-2.27-.9-3.98-1.02a.46.46 0 00-.06.92c1.57.1 2.65.54 3.7.95 1.18.47 2.4.96 4.24.96 1.2 0 2.65-.2 4.53-.73a.46.46 0 00-.24-.89zm-1.22 2.96c-3.66 1.17-6.19.3-8.87-.64-2.42-.83-4.92-1.7-8.28-1.02a.46.46 0 00.18.9c3.11-.62 5.39.16 7.8 1 1.77.6 3.6 1.24 5.76 1.24 1.12 0 2.34-.17 3.7-.6a.46.46 0 00-.29-.88z"/>
</svg>