<svg xmlns="http://www.w3.org/2000/svg" viewBox="0 0 97 20">
  <path fill="#9e978e" d="M27.91 19.81h-.81v-4.06h2.84v.82H27.9v.8h1.22v.82H27.9zm7.53-2a2.05 2.05 0 01-.28 1.05 2.07 2.07 0 01-.76.75 2.07 2.07 0 01-2.1 0 2.12 2.12 0 01-1.05-1.8 2.06 2.06 0 01.62-1.49 2.07 2.07 0 011.48-.61 2.06 2.06 0 011.48.61 2.1 2.1 0 01.61 1.48zm-.8 0a1.3 1.3 0 00-.79-1.2 1.25 1.25 0 00-.5-.1 1.32 1.32 0 00-1.2.79 1.25 1.25 0 000 1 1.32 1.32 0 00.7.69c.15.06.32.1.5.1a1.25 1.25 0 00.9-.38 1.22 1.22 0 00.38-.9zm3.35-1.24v1.62h.81a.78.78 0 00.57-.24.82.82 0 000-1.14.82.82 0 00-.57-.24zm0 3.24h-.81v-4.06h1.62a1.58 1.58 0 011.15.48 1.63 1.63 0 01.27 1.93 1.59 1.59 0 01-.56.59l.45 1.06h-.86l-.35-.82H38zm8.2 0h-.82v-2.9c0-.05 0-.1-.03-.15a.42.42 0 00-.22-.22.4.4 0 00-.15-.03.4.4 0 00-.4.4v2.9h-.82v-2.9a.4.4 0 00-.56-.37.4.4 0 00-.25.38v2.9h-.8v-2.9a1.2 1.2 0 01.35-.86 1.22 1.22 0 011.67-.05 1.18 1.18 0 01.8-.3 1.2 1.2 0 01.87.35 1.22 1.22 0 01.35.86zm1.69-2.84a1.24 1.24 0 01.74-1.12 1.17 1.17 0 01.47-.1h1.86v.82h-1.86a.4.4 0 00-.37.56.4.4 0 00.37.25h.81a1.2 1.2 0 01.86.35 1.22 1.22 0 01-.86 2.08h-1.8V19h1.8a.4.4 0 00.37-.56.4.4 0 00-.37-.25h-.81a1.24 1.24 0 01-1.12-.74 1.18 1.18 0 01-.1-.48zm11.82 2.84h-.8v-2.9a.4.4 0 00-.04-.15.42.42 0 00-.21-.22.4.4 0 00-.17-.03.4.4 0 00-.4.4v2.9h-.8v-2.9a.4.4 0 00-.57-.37.4.4 0 00-.25.38v2.9h-.8v-2.9a1.2 1.2 0 01.35-.86 1.22 1.22 0 011.67-.05 1.18 1.18 0 01.8-.3 1.2 1.2 0 01.87.35 1.22 1.22 0 01.35.86zm4.32-1.62v-.81a.8.8 0 00-.24-.57.82.82 0 00-1.15 0 .82.82 0 00-.24.57v.81zm.8 1.62h-.8V19H62.4v.81h-.81v-2.43a1.65 1.65 0 01.99-1.5 1.58 1.58 0 01.63-.12 1.58 1.58 0 011.15.47 1.64 1.64 0 01.47 1.15zM70 17.78a2 2 0 01-.6 1.44 2 2 0 01-1.43.6h-1.22v-4.07h1.22a2 2 0 011.43.6 2.09 2.09 0 01.53.9c.04.17.06.35.06.53zm-.81 0a1.18 1.18 0 00-.36-.85 1.24 1.24 0 00-.86-.36h-.4V19h.4a1.2 1.2 0 00.86-.35 1.22 1.22 0 00.36-.87zm5.33 2.03h-2.78v-4.06h2.78v.82h-1.97v.8h1.33v.82h-1.33v.8h1.97zm7.38 0H79.1v-4.06h2.78v.82h-1.97v.8h1.33v.82h-1.33v.8h1.97zm4.16-1.62v-.81a.8.8 0 00-.24-.57.82.82 0 00-1.15 0 .82.82 0 00-.24.57v.81zm.81 1.62h-.81V19h-1.63v.81h-.8v-2.43a1.65 1.65 0 01.99-1.5 1.58 1.58 0 01.63-.12 1.58 1.58 0 011.14.47 1.64 1.64 0 01.48 1.15zm1.67-2.84c0-.16.03-.32.1-.47a1.24 1.24 0 01.65-.65 1.17 1.17 0 01.47-.1h1.86v.82h-1.86a.4.4 0 00-.38.56.4.4 0 00.38.25h.8a1.2 1.2 0 01.87.35 1.22 1.22 0 01-.86 2.08h-1.8V19h1.8a.4.4 0 00.37-.56.4.4 0 00-.37-.25h-.81a1.24 1.24 0 01-1.12-.74 1.18 1.18 0 01-.1-.48zm6.8 2.84h-.8v-1.27a1.58 1.58 0 01-.88-.57 1.63 1.63 0 01-.34-1v-1.21h.8v1.21a.8.8 0 00.25.58.82.82 0 001.15 0 .82.82 0 00.23-.58v-1.21h.81v1.21a1.6 1.6 0 01-.34 1 1.64 1.64 0 01-.87.57z"/>
  <path fill="#ffa300" d="M31.55 13.75c1.2 0 2-.8 2-2V2.21c0-1.2-.8-2-2-2H27.1v13.55zm-.74-3.14c0 .36-.16.6-.58.6h-.39V2.75h.4c.43 0 .57.26.57.6zm6.35 3.14h2.44c1.2 0 2-.8 2-2V.21h-2.73V6c0 .3-.01.48-.27.52h-.45c-.23-.05-.25-.24-.25-.49V.22h-2.75v6.83c0 1.2.8 2 2 2h1.72v1.64c0 .3-.01.48-.27.52h-.45c-.23-.04-.25-.24-.25-.48v-.89h-2.75v1.91c0 1.2.8 2 2 2zm8.77 0V4.02l1 1.8v7.93h2.73V.21h-2.72V2.9L45.29.21h-2.08v13.55zM55.71.2h-2.44c-1.2 0-2 .8-2 2v11.55H54v-5.9h.97v5.9h2.74V2.2c0-1.2-.8-2-2-2zm-.74 5.11H54V3.28c0-.28.02-.53.4-.53h.2c.35 0 .36.24.36.53zm4.35 8.44h2.73v-5.9h2.52V5.3h-2.52V2.75h2.92V.21h-5.65zM68.1.21c-1.2 0-2 .8-2 2v9.54c0 1.2.8 2 2 2h2.44c1.2 0 2-.8 2-2V2.21c0-1.2-.8-2-2-2zm1.14 11c-.38 0-.42-.21-.42-.5V3.26c0-.28.04-.5.42-.5h.2c.35 0 .39.22.39.5v7.47c0 .28-.04.5-.38.5zm9.36-11h-4.45v13.55h2.75v-5.9h.48c.17 0 .48.1.48.48v5.42h2.74V7.13c0-.33-.2-.75-.48-.95.23-.1.48-.48.48-.96v-3c0-1.2-.8-2.01-2-2.01zm-1.31 2.53c.42 0 .57.26.57.61v1.47c0 .36-.29.5-.49.5h-.47V2.73zM84.93 7l.36 1.06h.29L85.93 7v6.74h2.72V.21h-2l-1.22 3.6-1.22-3.6h-2v13.55h2.72zm9.62-1.66h-.43c-.77 0-1.27-.2-1.27-.96v-1.1c0-.31 0-.5.26-.53h.45c.23.05.25.24.25.49v.64h2.74V2.21c0-1.2-.8-2-2-2H92.1c-1.2 0-2 .8-2 2v3.67c0 1.2.8 2 2 2h.43c.77 0 1.28.2 1.28.96v1.85c0 .3 0 .48-.27.52h-.44c-.24-.04-.25-.24-.25-.48V9.44H90.1v2.31c0 1.2.8 2 2 2h2.45c1.2 0 2-.8 2-2V7.34c0-1.2-.8-2-2-2zM8.29 3.44a1.77 1.77 0 11-3.54 0 1.77 1.77 0 013.54 0zm-.93 0a.84.84 0 10-1.68 0 .84.84 0 001.68 0zm2.7 5.34a.46.46 0 01-.64-.11.46.46 0 01.11-.65l2.69-1.88c.2-.14.46-.1.61.08l1 1.16 2.31-1.82a.46.46 0 01.6.02l2.83 2.6a.46.46 0 01-.62.67l-2.54-2.32-4.27 3.38a.46.46 0 11-.57-.73l1.54-1.22-.7-.82zm11.33 2.07a.46.46 0 00-.59-.28c-6.27 2.19-8.46 1.22-11 .1a15.05 15.05 0 00-8.46-1.45.46.46 0 10.08.92 14.1 14.1 0 018 1.38c1.49.66 2.92 1.29 5.1 1.29 1.65 0 3.73-.37 6.59-1.37a.46.46 0 00.28-.59zm-10.8 2.91c1.9.76 3.69 1.47 8.24.2a.46.46 0 01.24.88c-1.9.54-3.36.74-4.56.74-1.86 0-3.08-.48-4.27-.96-1.06-.42-2.15-.86-3.74-.96a.46.46 0 01.07-.92c1.72.11 2.88.57 4 1.02zM8.65 16.3c2.7.94 5.26 1.82 8.94.65a.46.46 0 01.29.88 12.14 12.14 0 01-3.73.6c-2.17 0-4.01-.63-5.8-1.25-2.43-.84-4.72-1.63-7.86-1a.46.46 0 01-.18-.91c3.38-.68 5.9.19 8.34 1.03z"/>
</svg>